<svg xmlns="http://www.w3.org/2000/svg" xmlns:xlink="http://www.w3.org/1999/xlink" width="174.135" height="32" viewBox="0 0 174.135 32">
  <defs>
    <clipPath id="clip-path">
      <path id="Pfad_1522" data-name="Pfad 1522" d="M29.221,22.275c-.283,0-6.947.087-6.947,6.941V45c0,.283.093,6.941,6.947,6.941H45.009c.283,0,6.941-.087,6.941-6.941V29.216c.005-.283-.093-6.941-6.941-6.941Z" transform="translate(-22.274 -22.275)" fill="none"/>
    </clipPath>
  </defs>
  <g id="Gruppe_2022" data-name="Gruppe 2022" transform="translate(-16 -8)">
    <g id="Gruppe_2019" data-name="Gruppe 2019" transform="translate(16 8)">
      <path id="Pfad_1520" data-name="Pfad 1520" d="M24.14,32H7.86C.118,32,0,24.477,0,24.14V7.86C0,.118,7.523,0,7.86,0H24.14C31.871,0,32,7.523,32,7.86V24.14C32,31.893,24.466,32,24.14,32Z" transform="translate(0 0)" fill="#fff"/>
      <g id="Gruppe_2017" data-name="Gruppe 2017" transform="translate(1.159 1.159)">
        <g id="Gruppe_2016" data-name="Gruppe 2016" clip-path="url(#clip-path)">
          <path id="Pfad_1524" data-name="Pfad 1524" d="M0,0H25.752V31.036H0Z" transform="translate(-0.677 -0.675)" fill="#fff"/>
          <g id="Gruppe_2015" data-name="Gruppe 2015" transform="translate(3.523 3.488)">
            <path id="Pfad_1521" data-name="Pfad 1521" d="M153.321,139.9a8.5,8.5,0,0,1,2.54,6.215,8.331,8.331,0,0,1-2.54,6.165h-.033a8.537,8.537,0,0,1-1.348,1.142v1.4h-9.557v-1.4a8.63,8.63,0,0,1-1.353-1.142,8.356,8.356,0,0,1-2.522-6.165A8.623,8.623,0,0,1,141,139.9c0-.02,0-.02.032-.02a8.427,8.427,0,0,1,6.151-2.507,8.308,8.308,0,0,1,6.106,2.507Zm-2.739,2.764a4.647,4.647,0,0,0-3.4-1.4,4.721,4.721,0,0,0-3.419,1.366.035.035,0,0,1-.04.038,4.855,4.855,0,0,0-1.34,3.451,4.656,4.656,0,0,0,1.38,3.419,4.788,4.788,0,0,0,2.482,1.361l-.058-.02a5.593,5.593,0,0,0,.995.078,4.7,4.7,0,0,0,.916-.078,5.062,5.062,0,0,0,2.484-1.341h0A4.624,4.624,0,0,0,152,146.112a4.689,4.689,0,0,0-1.416-3.451m-7.1,12.789h7.537v1.192h-7.537Z" transform="translate(-138.509 -137.37)" fill="#202020"/>
          </g>
          <rect id="Rechteck_1265" data-name="Rechteck 1265" width="4.407" height="6.949" transform="translate(9.995 23.411)" fill="#202020"/>
          <path id="Pfad_1527" data-name="Pfad 1527" d="M0,0H4.958V10.123H0Z" transform="translate(25.401 -0.675)" fill="#0f8c77"/>
          <path id="Pfad_1525" data-name="Pfad 1525" d="M0,0H4.958V8.43H0Z" transform="translate(25.401 10.626)" fill="#0f8c77"/>
          <path id="Pfad_1526" data-name="Pfad 1526" d="M0,0H4.958V10.123H0Z" transform="translate(25.401 20.238)" fill="#0f8c77"/>
        </g>
      </g>
    </g>
    <g id="Gruppe_1498" data-name="Gruppe 1498" transform="translate(60 15)">
      <g id="Gruppe_1498-2" data-name="Gruppe 1498">
        <path id="Pfad_1441" data-name="Pfad 1441" d="M165.181,12.191l3.576,6.564h2.4l-3.737-6.537L171.053,6h-2.4Zm-.267,6.564V.234l-2.082.292V18.755Zm-8.941-1.488c-1.281,0-2.242-.505-2.242-2.152V9.641c0-1.648.96-2.152,2.242-2.152s2.242.5,2.242,2.152v5.474c0,1.647-.96,2.152-2.242,2.152m0,1.754c2.7,0,4.323-1.461,4.323-4.066V9.8c0-2.6-1.628-4.065-4.323-4.065S151.65,7.2,151.65,9.8v5.155c0,2.6,1.628,4.066,4.323,4.066m-10.782-1.754c-1.281,0-2.242-.505-2.242-2.152V9.641c0-1.648.961-2.152,2.242-2.152s2.242.5,2.242,2.152v5.474c0,1.647-.961,2.152-2.242,2.152m0,1.754c2.7,0,4.323-1.461,4.323-4.066V9.8c0-2.6-1.628-4.065-4.323-4.065S140.867,7.2,140.867,9.8v5.155c0,2.6,1.628,4.066,4.324,4.066M131.5,16.948V10.624h3.336c1.335,0,1.949.691,1.949,2.126V14.9a1.866,1.866,0,0,1-2.135,2.046Zm0-8.131V2.864h3.069c1.068,0,1.521.505,1.521,1.621V6.877a1.692,1.692,0,0,1-1.895,1.94Zm-2.082,9.938h5.311c2.776,0,4.137-1.595,4.137-3.853V12.776a2.928,2.928,0,0,0-2.589-3.242,2.763,2.763,0,0,0,1.895-2.923V4.485c0-2.232-1.014-3.428-3.443-3.428h-5.311Z" transform="translate(-41.024 -0.074)" fill="#f5f5f5"/>
        <path id="Pfad_1442" data-name="Pfad 1442" d="M75.583,12.144l2.829,6.537h3.309l-3.015-6.537,2.909-6.324H78.252ZM75.4,18.681V0L72.407.452V18.681Zm-7.526.266a8.5,8.5,0,0,0,2.909-.505l-.374-2.418a5.923,5.923,0,0,1-1.948.345c-1.494,0-1.9-.744-1.9-1.966V10.1c0-1.222.4-1.966,1.9-1.966a5.433,5.433,0,0,1,1.948.345l.374-2.418a7.509,7.509,0,0,0-2.909-.505c-3.123,0-4.3,1.727-4.3,4.438v4.518c0,2.711,1.174,4.438,4.3,4.438m-8.994-4.013c0,1.116-.667,1.542-1.708,1.542s-1.682-.426-1.682-1.542V9.566c0-1.116.641-1.542,1.682-1.542s1.708.426,1.708,1.542Zm2.989-5.049c0-2.684-1.628-4.332-4.7-4.332S52.5,7.2,52.5,9.885v4.73c0,2.684,1.6,4.332,4.67,4.332s4.7-1.648,4.7-4.332Zm-18.549,8.8h7.927V15.97H46.412V.983h-3.1Zm-2.535-8.8H35.417v2.6h5.364Zm-7.152,3.933c0-3.721-.694-4.384-3.71-5.634-2.242-.93-2.376-1.116-2.376-2.764,0-1.541.561-2.1,2.216-2.1a9.487,9.487,0,0,1,3.042.532l.374-2.578A10.426,10.426,0,0,0,29.438.664C26.236.664,24.5,2.046,24.5,5.5c0,3.083.48,4.358,3.817,5.554,1.921.691,2.268.93,2.268,2.9,0,1.621-.614,2.392-2.482,2.392a8.568,8.568,0,0,1-2.99-.531l-.4,2.577A12.826,12.826,0,0,0,28.477,19c3.39,0,5.151-1.86,5.151-5.182M16.2,16.1V10.948h2.349a1.339,1.339,0,0,1,1.521,1.541v2.1c0,.93-.4,1.515-1.6,1.515Zm0-7.734V3.561h2.108c.881,0,1.174.372,1.174,1.249V6.962A1.233,1.233,0,0,1,18.068,8.37ZM13.158,18.681H18.6c3.123,0,4.511-1.648,4.511-4.066V12.7A2.952,2.952,0,0,0,20.47,9.487a3.019,3.019,0,0,0,2.055-3.03V4.544C22.526,2.1,21.272.983,18.79.983H13.158ZM4.35,12.091l1.5-8,1.494,8ZM0,18.681H3.123l.747-3.906H7.793l.774,3.906H11.69L7.553.983H4.137Z" fill="#f5f5f5"/>
      </g>
    </g>
  </g>
</svg>
